Subj06run_81
version=1
nRows=48
nColumns=19
inDegrees=no
endheader
time	l_ground_force_vx	l_ground_force_vy	l_ground_force_vz	l_ground_force_px	l_ground_force_py	l_ground_force_pz	ground_force_vx	ground_force_vy	ground_force_vz	ground_force_px	ground_force_py	ground_force_pz	l_ground_torque_x	l_ground_torque_y	l_ground_torque_z	ground_torque_x	ground_torque_y	ground_torque_z	
29.19	0	0	0	0	0	0	0	0	0	0	0	0	0	0	0	0	0	0
29.2	0	0	0	0	0	0	0	0	0	0	0	0	0	0	0	0	0	0
29.21	0	0	0	0	0	0	0	0	0	0	0	0	0	0	0	0	0	0
29.22	0	0	0	0	0	0	0	0	0	0	0	0	0	0	0	0	0	0
29.23	0	0	0	0	0	0	0	0	0	0	0	0	0	0	0	0	0	0
29.24	0	0	0	0	0	0	0	0	0	0	0	0	0	0	0	0	0	0
29.25	0	0	0	0	0	0	0	0	0	0	0	0	0	0	0	0	0	0
29.26	-13.8168535056238	73.8766844346932	18.5680856549274	-0.0260559053829346	0	0.00437953889264686	0	0	0	0	0	0	0	1.87994527336138	0	0	0	0
29.27	-13.8961422505207	209.550064872264	26.3301722862006	-0.0200972547472859	0	-0.02856200752641	0	0	0	0	0	0	0	1.19572597667354	0	0	0	0
29.28	-15.7222383588747	412.948587201831	34.6234828345751	-0.00885709454806145	0	-0.0387880062860299	0	0	0	0	0	0	0	0.48408405941867	0	0	0	0
29.29	-30.9751964274762	640.386632120818	39.5047478421035	0.000585747080342241	0	-0.0429216947506811	0	0	0	0	0	0	0	0.87199213600252	0	0	0	0
29.3	-61.6837554866471	824.640413569338	37.1094974282192	0.00806833461017883	0	-0.0447089425232465	0	0	0	0	0	0	0	3.20550633980139	0	0	0	0
29.31	-101.394427905755	957.291828108924	34.7539539988183	0.0124207697706764	0	-0.0461423030791923	0	0	0	0	0	0	0	6.98312937839464	0	0	0	0
29.32	-137.872604341005	1067.31067922862	39.3092417282095	0.0113581895151923	0	-0.0476701003708287	0	0	0	0	0	0	0	10.9887150965254	0	0	0	0
29.33	-157.695272190405	1172.16315608312	47.2776406266275	0.00359625119150989	0	-0.0490150142989725	0	0	0	0	0	0	0	14.2117525188078	0	0	0	0
29.34	-159.24576062068	1272.30481221455	55.7046120513819	-0.0102630329678345	0	-0.0498444139641438	0	0	0	0	0	0	0	16.0519688374424	0	0	0	0
29.35	-144.040229760069	1359.30982398731	61.5593133302508	-0.0281273492403957	0	-0.0501882198132361	0	0	0	0	0	0	0	16.3883923712893	0	0	0	0
29.36	-117.783426357223	1426.50375702223	65.2894740467231	-0.0477660875422688	0	-0.0503562677028233	0	0	0	0	0	0	0	15.4074144652152	0	0	0	0
29.37	-85.1854842856099	1467.0459099738	66.6911297842037	-0.067252292303432	0	-0.0505336665266743	0	0	0	0	0	0	0	13.3991582748615	0	0	0	0
29.38	-50.6323674969832	1475.68580481259	65.8001618252816	-0.0855755515376506	0	-0.0508547493050624	0	0	0	0	0	0	0	10.9519966331824	0	0	0	0
29.39	-17.3733635773523	1451.3697112228	63.7331398608824	-0.102390023416403	0	-0.0513800199391913	0	0	0	0	0	0	0	8.74384102955282	0	0	0	0
29.4	12.1834533334093	1396.63340599577	61.167369288703	-0.117735814061863	0	-0.0520302269982994	0	0	0	0	0	0	0	7.20785029045176	0	0	0	0
29.41	36.7677166868528	1314.95116666517	57.737696184604	-0.132188145352727	0	-0.0526241275985967	0	0	0	0	0	0	0	6.43026191818708	0	0	0	0
29.42	56.5529445798927	1209.12025694561	53.1987161935605	-0.146991456142422	0	-0.0528706110906757	0	0	0	0	0	0	0	6.21018317661986	0	0	0	0
29.43	72.4281596849714	1082.09523226348	47.826167365582	-0.163505940171016	0	-0.0525491071055497	0	0	0	0	0	0	0	6.13628165749328	0	0	0	0
29.44	85.2664319613571	938.037362487089	42.2361686401886	-0.182792175621112	0	-0.0514813609446827	0	0	0	0	0	0	0	5.76593831064317	0	0	0	0
29.45	94.9410811566889	782.965102059539	36.9556417267308	-0.205571918389873	0	-0.0496680671131152	0	0	0	0	0	0	0	4.89429229731458	0	0	0	0
29.46	101.074018218145	624.678741697552	32.1482965335265	-0.232061936876699	0	-0.0471385946543635	0	0	0	0	0	0	0	3.3674137873293	0	0	0	0
29.47	102.510123978677	473.177434670425	27.7257254324184	-0.26147798048748	0	-0.0439932508289319	0	0	0	0	0	0	0	1.18285900693083	0	0	0	0
29.48	98.0606423014107	338.753571399265	23.6710345081624	-0.290870697407384	0	-0.0403587475342777	0	0	0	0	0	0	0	-1.22235129731883	0	0	0	0
29.49	87.3824647952534	228.821775473938	20.2608768490699	-0.313870504721665	0	-0.0365715274908445	0	0	0	0	0	0	0	-3.14390507238506	0	0	0	0
29.5	71.7123592692903	145.609022303339	17.4522073858606	-0.319316264723698	0	-0.0329125930553238	0	0	0	0	0	0	0	-3.97509991105976	0	0	0	0
29.51	53.2613063393391	86.7451159271671	15.3536478876381	-0.28980327423472	0	-0.0279082774608043	0	0	0	0	0	0	0	-3.54522602324651	0	0	0	0
29.52	34.2624200956883	47.3607940718815	13.7696290756609	-0.201134669643228	0	-0.0135544771459625	0	0	0	0	0	0	0	-2.07455563955073	0	0	0	0
29.53	17.3297878562157	22.0301994166832	12.6045383695244	-0.0221088305223028	0	0.042274895846516	0	0	0	0	0	0	0	-0.325389465841025	0	0	0	0
29.54	0	0	0	0	0	0	0	0	0	0	0	0	0	0	0	0	0	0
29.55	0	0	0	0	0	0	0	0	0	0	0	0	0	0	0	0	0	0
29.56	0	0	0	0	0	0	0	0	0	0	0	0	0	0	0	0	0	0
29.57	0	0	0	0	0	0	0	0	0	0	0	0	0	0	0	0	0	0
29.58	0	0	0	0	0	0	0	0	0	0	0	0	0	0	0	0	0	0
29.59	0	0	0	0	0	0	0	0	0	0	0	0	0	0	0	0	0	0
29.6	0	0	0	0	0	0	0	0	0	0	0	0	0	0	0	0	0	0
29.61	0	0	0	0	0	0	0	0	0	0	0	0	0	0	0	0	0	0
29.62	0	0	0	0	0	0	0	0	0	0	0	0	0	0	0	0	0	0
29.63	0	0	0	0	0	0	0	0	0	0	0	0	0	0	0	0	0	0
29.64	0	0	0	0	0	0	0	0	0	0	0	0	0	0	0	0	0	0
29.65	0	0	0	0	0	0	1.66464305542977	107.008161812409	-20.7714374894094	0.0405922960824774	0	0.0509341038920749	0	0	0	0	2.19325271530362	0
29.66	0	0	0	0	0	0	-7.38279044856023	266.379144359958	-26.8432383467082	0.0266043781064076	0	0.0612818392278384	0	0	0	0	1.26491070082536	0
